<svg width="117" height="27" viewBox="0 0 117 27" fill="none" xmlns="http://www.w3.org/2000/svg">
    <path d="M0.91 10.9C0.91 9.11467 1.30867 7.52 2.106 6.116C2.92067 4.69467 4.02133 3.594 5.408 2.814C6.812 2.01667 8.38067 1.618 10.114 1.618C12.142 1.618 13.9187 2.138 15.444 3.178C16.9693 4.218 18.0353 5.65667 18.642 7.494H14.456C14.04 6.62733 13.4507 5.97733 12.688 5.544C11.9427 5.11067 11.076 4.894 10.088 4.894C9.03067 4.894 8.086 5.14533 7.254 5.648C6.43933 6.13333 5.798 6.82667 5.33 7.728C4.87933 8.62933 4.654 9.68667 4.654 10.9C4.654 12.096 4.87933 13.1533 5.33 14.072C5.798 14.9733 6.43933 15.6753 7.254 16.178C8.086 16.6633 9.03067 16.906 10.088 16.906C11.076 16.906 11.9427 16.6893 12.688 16.256C13.4507 15.8053 14.04 15.1467 14.456 14.28H18.642C18.0353 16.1347 16.9693 17.582 15.444 18.622C13.936 19.6447 12.1593 20.156 10.114 20.156C8.38067 20.156 6.812 19.766 5.408 18.986C4.02133 18.1887 2.92067 17.088 2.106 15.684C1.30867 14.28 0.91 12.6853 0.91 10.9ZM29.863 5.388C30.955 5.388 31.9257 5.63067 32.775 6.116C33.6244 6.584 34.283 7.286 34.751 8.222C35.2364 9.14067 35.479 10.25 35.479 11.55V20H31.839V12.044C31.839 10.9 31.553 10.0247 30.981 9.418C30.409 8.794 29.629 8.482 28.641 8.482C27.6357 8.482 26.8384 8.794 26.249 9.418C25.677 10.0247 25.391 10.9 25.391 12.044V20H21.751V0.76H25.391V7.39C25.859 6.766 26.483 6.28067 27.263 5.934C28.043 5.57 28.9097 5.388 29.863 5.388ZM38.0045 12.746C38.0045 11.29 38.2905 9.99867 38.8625 8.872C39.4518 7.74533 40.2405 6.87867 41.2285 6.272C42.2338 5.66533 43.3518 5.362 44.5825 5.362C45.6572 5.362 46.5932 5.57867 47.3905 6.012C48.2052 6.44533 48.8552 6.99133 49.3405 7.65V5.596H53.0065V20H49.3405V17.894C48.8725 18.57 48.2225 19.1333 47.3905 19.584C46.5758 20.0173 45.6312 20.234 44.5565 20.234C43.3432 20.234 42.2338 19.922 41.2285 19.298C40.2405 18.674 39.4518 17.7987 38.8625 16.672C38.2905 15.528 38.0045 14.2193 38.0045 12.746ZM49.3405 12.798C49.3405 11.914 49.1672 11.16 48.8205 10.536C48.4738 9.89467 48.0058 9.40933 47.4165 9.08C46.8272 8.73333 46.1945 8.56 45.5185 8.56C44.8425 8.56 44.2185 8.72467 43.6465 9.054C43.0745 9.38333 42.6065 9.86867 42.2425 10.51C41.8958 11.134 41.7225 11.8793 41.7225 12.746C41.7225 13.6127 41.8958 14.3753 42.2425 15.034C42.6065 15.6753 43.0745 16.1693 43.6465 16.516C44.2358 16.8627 44.8598 17.036 45.5185 17.036C46.1945 17.036 46.8272 16.8713 47.4165 16.542C48.0058 16.1953 48.4738 15.71 48.8205 15.086C49.1672 14.4447 49.3405 13.682 49.3405 12.798ZM60.7996 8.586V15.554C60.7996 16.0393 60.9122 16.3947 61.1376 16.62C61.3802 16.828 61.7789 16.932 62.3336 16.932H64.0236V20H61.7356C58.6676 20 57.1336 18.5093 57.1336 15.528V8.586H55.4176V5.596H57.1336V2.034H60.7996V5.596H64.0236V8.586H60.7996ZM65.9657 12.824C65.9657 11.368 66.2603 10.094 66.8497 9.002C67.439 7.89267 68.245 7.03467 69.2677 6.428C70.3077 5.82133 71.4603 5.518 72.7257 5.518C73.9737 5.518 75.057 5.78667 75.9757 6.324C76.8943 6.86133 77.579 7.53733 78.0297 8.352V5.752H80.4217V20H78.0297V17.348C77.5617 18.18 76.8597 18.8733 75.9237 19.428C75.005 19.9653 73.9303 20.234 72.6997 20.234C71.4343 20.234 70.2903 19.922 69.2677 19.298C68.245 18.674 67.439 17.7987 66.8497 16.672C66.2603 15.5453 65.9657 14.2627 65.9657 12.824ZM78.0297 12.85C78.0297 11.7753 77.813 10.8393 77.3797 10.042C76.9463 9.24467 76.357 8.638 75.6117 8.222C74.8837 7.78867 74.0777 7.572 73.1937 7.572C72.3097 7.572 71.5037 7.78 70.7757 8.196C70.0477 8.612 69.467 9.21867 69.0337 10.016C68.6003 10.8133 68.3837 11.7493 68.3837 12.824C68.3837 13.916 68.6003 14.8693 69.0337 15.684C69.467 16.4813 70.0477 17.0967 70.7757 17.53C71.5037 17.946 72.3097 18.154 73.1937 18.154C74.0777 18.154 74.8837 17.946 75.6117 17.53C76.357 17.0967 76.9463 16.4813 77.3797 15.684C77.813 14.8693 78.0297 13.9247 78.0297 12.85ZM86.786 8.378C87.254 7.56333 87.9473 6.88733 88.866 6.35C89.802 5.79533 90.8853 5.518 92.116 5.518C93.3813 5.518 94.5253 5.82133 95.548 6.428C96.588 7.03467 97.4026 7.89267 97.992 9.002C98.5813 10.094 98.876 11.368 98.876 12.824C98.876 14.2627 98.5813 15.5453 97.992 16.672C97.4026 17.7987 96.588 18.674 95.548 19.298C94.5253 19.922 93.3813 20.234 92.116 20.234C90.9026 20.234 89.828 19.9653 88.892 19.428C87.9733 18.8733 87.2713 18.1887 86.786 17.374V26.76H84.42V5.752H86.786V8.378ZM96.458 12.824C96.458 11.7493 96.2413 10.8133 95.808 10.016C95.3746 9.21867 94.7853 8.612 94.04 8.196C93.312 7.78 92.506 7.572 91.622 7.572C90.7553 7.572 89.9493 7.78867 89.204 8.222C88.476 8.638 87.8866 9.25333 87.436 10.068C87.0026 10.8653 86.786 11.7927 86.786 12.85C86.786 13.9247 87.0026 14.8693 87.436 15.684C87.8866 16.4813 88.476 17.0967 89.204 17.53C89.9493 17.946 90.7553 18.154 91.622 18.154C92.506 18.154 93.312 17.946 94.04 17.53C94.7853 17.0967 95.3746 16.4813 95.808 15.684C96.2413 14.8693 96.458 13.916 96.458 12.824ZM104.356 8.378C104.824 7.56333 105.518 6.88733 106.436 6.35C107.372 5.79533 108.456 5.518 109.686 5.518C110.952 5.518 112.096 5.82133 113.118 6.428C114.158 7.03467 114.973 7.89267 115.562 9.002C116.152 10.094 116.446 11.368 116.446 12.824C116.446 14.2627 116.152 15.5453 115.562 16.672C114.973 17.7987 114.158 18.674 113.118 19.298C112.096 19.922 110.952 20.234 109.686 20.234C108.473 20.234 107.398 19.9653 106.462 19.428C105.544 18.8733 104.842 18.1887 104.356 17.374V26.76H101.99V5.752H104.356V8.378ZM114.028 12.824C114.028 11.7493 113.812 10.8133 113.378 10.016C112.945 9.21867 112.356 8.612 111.61 8.196C110.882 7.78 110.076 7.572 109.192 7.572C108.326 7.572 107.52 7.78867 106.774 8.222C106.046 8.638 105.457 9.25333 105.006 10.068C104.573 10.8653 104.356 11.7927 104.356 12.85C104.356 13.9247 104.573 14.8693 105.006 15.684C105.457 16.4813 106.046 17.0967 106.774 17.53C107.52 17.946 108.326 18.154 109.192 18.154C110.076 18.154 110.882 17.946 111.61 17.53C112.356 17.0967 112.945 16.4813 113.378 15.684C113.812 14.8693 114.028 13.916 114.028 12.824Z"
          fill="#1E71FF"/>
</svg>
