<svg width="164" height="32" viewBox="0 0 164 32" fill="none" xmlns="http://www.w3.org/2000/svg">
    <path d="M14.0979 5.8541C14.6966 4.01148 17.3034 4.01148 17.9021 5.8541L19.1432 9.67376C19.4109 10.4978 20.1789 11.0557 21.0453 11.0557H25.0615C26.999 11.0557 27.8045 13.535 26.2371 14.6738L22.9879 17.0344C22.2869 17.5437 21.9936 18.4465 22.2614 19.2705L23.5024 23.0902C24.1012 24.9328 21.9922 26.465 20.4248 25.3262L17.1756 22.9656C16.4746 22.4563 15.5254 22.4563 14.8244 22.9656L11.5752 25.3262C10.0078 26.465 7.89885 24.9328 8.49755 23.0902L9.73863 19.2705C10.0064 18.4465 9.71306 17.5437 9.01209 17.0344L5.76289 14.6738C4.19546 13.535 5.00102 11.0557 6.93846 11.0557H10.9547C11.8211 11.0557 12.5891 10.4978 12.8568 9.67376L14.0979 5.8541Z"
          fill="#FBAC2E"/>
    <path d="M47.0979 5.8541C47.6966 4.01148 50.3034 4.01148 50.9021 5.8541L52.1432 9.67376C52.4109 10.4978 53.1789 11.0557 54.0453 11.0557H58.0615C59.999 11.0557 60.8045 13.535 59.2371 14.6738L55.9879 17.0344C55.2869 17.5437 54.9936 18.4465 55.2614 19.2705L56.5024 23.0902C57.1012 24.9328 54.9922 26.465 53.4248 25.3262L50.1756 22.9656C49.4746 22.4563 48.5254 22.4563 47.8244 22.9656L44.5752 25.3262C43.0078 26.465 40.8988 24.9328 41.4976 23.0902L42.7386 19.2705C43.0064 18.4465 42.7131 17.5437 42.0121 17.0344L38.7629 14.6738C37.1955 13.535 38.001 11.0557 39.9385 11.0557H43.9547C44.8211 11.0557 45.5891 10.4978 45.8568 9.67376L47.0979 5.8541Z"
          fill="#FBAC2E"/>
    <path d="M80.0979 5.8541C80.6966 4.01148 83.3034 4.01148 83.9021 5.8541L85.1432 9.67376C85.4109 10.4978 86.1789 11.0557 87.0453 11.0557H91.0615C92.999 11.0557 93.8045 13.535 92.2371 14.6738L88.9879 17.0344C88.2869 17.5437 87.9936 18.4465 88.2614 19.2705L89.5024 23.0902C90.1012 24.9328 87.9922 26.465 86.4248 25.3262L83.1756 22.9656C82.4746 22.4563 81.5254 22.4563 80.8244 22.9656L77.5752 25.3262C76.0078 26.465 73.8988 24.9328 74.4976 23.0902L75.7386 19.2705C76.0064 18.4465 75.7131 17.5437 75.0121 17.0344L71.7629 14.6738C70.1955 13.535 71.001 11.0557 72.9385 11.0557H76.9547C77.8211 11.0557 78.5891 10.4978 78.8568 9.67376L80.0979 5.8541Z"
          fill="#FBAC2E"/>
    <path d="M113.098 5.8541C113.697 4.01148 116.303 4.01148 116.902 5.8541L118.143 9.67376C118.411 10.4978 119.179 11.0557 120.045 11.0557H124.062C125.999 11.0557 126.805 13.535 125.237 14.6738L121.988 17.0344C121.287 17.5437 120.994 18.4465 121.261 19.2705L122.502 23.0902C123.101 24.9328 120.992 26.465 119.425 25.3262L116.176 22.9656C115.475 22.4563 114.525 22.4563 113.824 22.9656L110.575 25.3262C109.008 26.465 106.899 24.9328 107.498 23.0902L108.739 19.2705C109.006 18.4465 108.713 17.5437 108.012 17.0344L104.763 14.6738C103.195 13.535 104.001 11.0557 105.938 11.0557H109.955C110.821 11.0557 111.589 10.4978 111.857 9.67376L113.098 5.8541Z"
          fill="#FBAC2E"/>
    <path d="M146.098 5.8541C146.697 4.01148 149.303 4.01148 149.902 5.8541L151.143 9.67376C151.411 10.4978 152.179 11.0557 153.045 11.0557H157.062C158.999 11.0557 159.805 13.535 158.237 14.6738L154.988 17.0344C154.287 17.5437 153.994 18.4465 154.261 19.2705L155.502 23.0902C156.101 24.9328 153.992 26.465 152.425 25.3262L149.176 22.9656C148.475 22.4563 147.525 22.4563 146.824 22.9656L143.575 25.3262C142.008 26.465 139.899 24.9328 140.498 23.0902L141.739 19.2705C142.006 18.4465 141.713 17.5437 141.012 17.0344L137.763 14.6738C136.195 13.535 137.001 11.0557 138.938 11.0557H142.955C143.821 11.0557 144.589 10.4978 144.857 9.67376L146.098 5.8541Z"
          fill="#FBAC2E"/>
</svg>
